<svg width="76" height="24" viewBox="0 0 76 24" fill="none" xmlns="http://www.w3.org/2000/svg">
<path d="M26.9862 23.2126L30.8261 0.68547H36.9659L33.1248 23.2126H26.9862ZM55.2795 1.17966C53.5175 0.541401 51.6562 0.221127 49.7823 0.233758C43.7229 0.233758 39.4542 3.2853 39.4175 7.6597C39.3841 10.8928 42.4655 12.6961 44.7918 13.7719C47.1789 14.8752 47.9812 15.5786 47.9697 16.5636C47.9548 18.0716 46.063 18.76 44.301 18.76C41.8461 18.76 40.5426 18.4153 38.5278 17.5797L37.7383 17.2222L36.8774 22.2587C38.3095 22.8862 40.9587 23.431 43.708 23.4586C50.1546 23.4586 54.3394 20.4426 54.3877 15.7717C54.4106 13.2121 52.7786 11.264 49.2386 9.65837C47.0951 8.62396 45.7825 7.92286 45.7963 6.86891C45.7963 5.93449 46.9077 4.93461 49.3087 4.93461C50.8818 4.8994 52.445 5.193 53.8981 5.79662L54.4474 6.05635L55.2795 1.17966ZM71.0531 0.68547H66.3293C64.8662 0.68547 63.7709 1.08546 63.1284 2.54513L54.0486 23.0977H60.5113C60.5113 23.0977 61.5458 20.3645 61.7837 19.7646L69.5268 19.7738C69.7073 20.5507 70.2624 23.0977 70.2624 23.0977H75.9999L71.0531 0.68547ZM63.5422 15.1672C64.049 13.8707 65.9857 8.87796 65.9857 8.87796C65.9489 8.93773 66.4891 7.57461 66.7983 6.72984L67.2131 8.66998C67.2131 8.66998 68.3878 14.0408 68.6326 15.1672H63.5422ZM21.7762 0.68547L15.7858 15.9936L15.1479 12.8823C14.0331 9.29636 10.5586 5.41159 6.67383 3.4669L12.1516 23.0977L18.6247 23.0907L28.2573 0.68547H21.7463" fill="url(#paint0_linear_1765_30)"/>
<path d="M9.92571 0.685266H0.0792979L0 1.15303C7.6937 3.01611 12.7841 7.51695 14.8977 12.9235L12.7473 2.57938C12.3761 1.15534 11.3003 0.730086 9.96825 0.680664" fill="url(#paint1_linear_1765_30)"/>
<defs>
<linearGradient id="paint0_linear_1765_30" x1="41.3369" y1="0.233398" x2="41.3369" y2="23.4586" gradientUnits="userSpaceOnUse">
<stop stop-color="white"/>
<stop offset="1" stop-color="white" stop-opacity="0.75"/>
</linearGradient>
<linearGradient id="paint1_linear_1765_30" x1="7.44887" y1="0.680664" x2="7.44887" y2="12.9235" gradientUnits="userSpaceOnUse">
<stop stop-color="white"/>
<stop offset="1" stop-color="white" stop-opacity="0.75"/>
</linearGradient>
</defs>
</svg>
